<svg width="512" height="512" viewBox="0 0 512 512" fill="none" xmlns="http://www.w3.org/2000/svg">
<rect width="512" height="512" fill="white"/>
<rect width="512" height="512" fill="url(#paint0_linear_4_77)"/>
<path fill-rule="evenodd" clip-rule="evenodd" d="M370.563 312.464C370.563 311.73 370.547 310.999 370.513 310.273L370.563 310.273C398.971 310.273 422 288.693 422 262.073C422 243.631 410.947 227.608 394.71 219.503C395.739 215.225 396.282 210.774 396.282 206.205C396.282 172.929 367.496 145.955 331.986 145.955C317.66 145.955 304.429 150.345 293.741 157.768C290.657 152.059 284.337 148.145 277.042 148.145C271.809 148.145 267.077 150.16 263.682 153.406C251.99 142.058 235.586 135 217.423 135C185.359 135 158.777 156.994 153.92 185.76C148.919 184.102 143.537 183.2 137.93 183.2C111.459 183.2 94.0607 202.695 94.0607 227.5C94.0607 245.11 100.815 260.967 116.561 268.328C105.989 277.344 99.3521 290.344 99.3521 304.795C99.3521 319.884 106.586 333.389 117.982 342.432C113.108 353.939 105.343 365.679 94.0607 370C73.4373 377.898 136.377 382.716 170.344 350.996L170.494 350.943C173.873 355.494 179.495 358.473 185.859 358.473C188.905 358.473 191.782 357.79 194.323 356.58C202.97 368.312 217.421 376 233.789 376C254.001 376 271.29 364.276 278.337 347.69C288.1 357.047 301.721 362.855 316.789 362.855C346.488 362.855 370.563 340.294 370.563 312.464ZM173.213 268.199C176.689 271.674 180.853 273.412 185.706 273.412C188.985 273.412 191.936 272.625 194.559 271.051C197.248 269.412 199.379 267.248 200.953 264.559C202.592 261.87 203.412 258.919 203.412 255.706C203.412 250.853 201.674 246.689 198.199 243.213C194.723 239.738 190.559 238 185.706 238C180.853 238 176.689 239.738 173.213 243.213C169.738 246.689 168 250.853 168 255.706C168 260.559 169.738 264.723 173.213 268.199ZM316.112 273.412C311.26 273.412 307.095 271.674 303.62 268.199C300.144 264.723 298.406 260.559 298.406 255.706C298.406 250.853 300.144 246.689 303.62 243.213C307.095 239.738 311.26 238 316.112 238C320.965 238 325.129 239.738 328.605 243.213C332.081 246.689 333.818 250.853 333.818 255.706C333.818 258.919 332.999 261.87 331.359 264.559C329.785 267.248 327.654 269.412 324.965 271.051C322.342 272.625 319.391 273.412 316.112 273.412ZM251 283C265.912 283 278 270.912 278 256C278 241.088 265.912 229 251 229C236.088 229 224 241.088 224 256C224 270.912 236.088 283 251 283Z" fill="#F1F5F9"/>
<defs>
<linearGradient id="paint0_linear_4_77" x1="256" y1="0" x2="256" y2="512" gradientUnits="userSpaceOnUse">
<stop stop-color="#334155"/>
<stop offset="1" stop-color="#0F172A"/>
</linearGradient>
</defs>
</svg>
